<svg width="12" height="8" viewBox="0 0 12 8" fill="none" xmlns="http://www.w3.org/2000/svg">
<path d="M11.6497 4.1621C11.6329 4.2016 11.2281 5.1409 10.3276 6.0826C9.12827 7.33695 7.61283 8 5.9453 8C4.27777 8 2.76233 7.337 1.56302 6.08265C0.662536 5.1409 0.257618 4.20155 0.240836 4.16205C0.219111 4.11091 0.207886 4.05556 0.207886 3.9996C0.207886 3.94364 0.219111 3.8883 0.240836 3.83715C0.257666 3.79765 0.662536 2.85855 1.56307 1.91695C2.76238 0.6629 4.27773 0 5.9453 0C7.61288 0 9.12823 0.6629 10.3275 1.91695C11.228 2.85855 11.6329 3.7976 11.6498 3.83715C11.6715 3.8883 11.6827 3.94364 11.6827 3.9996C11.6827 4.05556 11.6714 4.11096 11.6497 4.1621ZM5.9453 5.7996C6.28573 5.7996 6.61851 5.69403 6.90156 5.49625C7.18462 5.29846 7.40523 5.01734 7.53551 4.68843C7.66578 4.35952 7.69987 3.9976 7.63345 3.64844C7.56704 3.29927 7.40311 2.97854 7.16239 2.72681C6.92167 2.47507 6.61498 2.30364 6.2811 2.23419C5.94721 2.16473 5.60113 2.20038 5.28662 2.33662C4.97211 2.47285 4.70329 2.70356 4.51416 2.99957C4.32503 3.29558 4.22408 3.64359 4.22408 3.9996C4.22459 4.47683 4.40609 4.93436 4.72877 5.27181C5.05146 5.60926 5.48896 5.79907 5.9453 5.7996Z" fill="#6064AB"/>
</svg>
