<svg width="8" height="11" viewBox="0 0 8 11" fill="none" xmlns="http://www.w3.org/2000/svg">
<path d="M0.120361 11H7.77025V9.03573C7.76944 8.30664 7.48709 7.60765 6.98515 7.0921C6.4832 6.57656 5.80265 6.28656 5.09279 6.28572H2.79782C2.08796 6.28656 1.40741 6.57656 0.905466 7.0921C0.40352 7.60765 0.121171 8.30664 0.120361 9.03573V11Z" fill="#6064AB"/>
<path d="M1.2677 2.75C1.2677 3.2939 1.42473 3.82559 1.71893 4.27782C2.01314 4.73006 2.4313 5.08253 2.92054 5.29068C3.40978 5.49882 3.94813 5.55328 4.46751 5.44717C4.98689 5.34106 5.46396 5.07914 5.83841 4.69455C6.21286 4.30995 6.46787 3.81995 6.57118 3.2865C6.67449 2.75305 6.62146 2.20012 6.41881 1.69762C6.21616 1.19513 5.87299 0.765633 5.43268 0.463459C4.99237 0.161285 4.47471 0 3.94516 0C3.23505 0 2.55403 0.289732 2.05191 0.805457C1.54979 1.32118 1.2677 2.02066 1.2677 2.75Z" fill="#6064AB"/>
</svg>
